<?xml version="1.0" encoding="UTF-8"?>
<!DOCTYPE svg PUBLIC "-//W3C//DTD SVG 1.1//EN" "http://www.w3.org/Graphics/SVG/1.1/DTD/svg11.dtd">
<svg xmlns="http://www.w3.org/2000/svg" version="1.1" width="67px" height="64px" style="shape-rendering:geometricPrecision; text-rendering:geometricPrecision; image-rendering:optimizeQuality; fill-rule:evenodd; clip-rule:evenodd"
    xmlns:xlink="http://www.w3.org/1999/xlink">
    <g>
        <path fill="#0f9ebc" d="M 29.5,-0.5 C 31.1667,-0.5 32.8333,-0.5 34.5,-0.5C 35.1465,1.15611 35.8131,2.82277 36.5,4.5C 34.2617,7.04404 34.095,9.7107 36,12.5C 38.6551,7.50527 42.6551,5.50527 48,6.5C 53.9282,4.26213 60.0948,3.26213 66.5,3.5C 66.5,4.83333 66.5,6.16667 66.5,7.5C 58.881,12.6056 50.881,17.1056 42.5,21C 46.1276,22.7919 48.4609,25.6253 49.5,29.5C 47.9261,34.076 44.9261,37.4093 40.5,39.5C 43.8866,42.2371 44.8866,45.5704 43.5,49.5C 41.66,51.168 39.66,52.668 37.5,54C 41.0901,55.9657 41.0901,57.4657 37.5,58.5C 36.3527,58.1822 35.5194,57.5156 35,56.5C 34.5034,58.8098 34.3367,61.1432 34.5,63.5C 32.8333,63.5 31.1667,63.5 29.5,63.5C 29.6621,61.4727 29.4955,59.4727 29,57.5C 27.6439,58.3802 26.1439,58.7135 24.5,58.5C 24.2267,56.549 24.8934,55.049 26.5,54C 18.5708,50.4624 17.5708,45.6291 23.5,39.5C 12.912,34.0208 12.2453,27.8541 21.5,21C 13.5338,17.8491 6.20046,13.6825 -0.5,8.5C -0.5,6.83333 -0.5,5.16667 -0.5,3.5C 7.48704,4.05647 15.1537,5.22314 22.5,7C 25.7284,8.56292 27.8951,11.0629 29,14.5C 29.8456,10.9165 29.3456,7.58313 27.5,4.5C 28.5471,2.94359 29.2137,1.27692 29.5,-0.5 Z M 28.5,28.5 C 28.7463,30.7805 28.7463,32.7805 28.5,34.5C 19.4396,30.5717 19.4396,28.5717 28.5,28.5 Z M 35.5,28.5 C 44.5208,28.2917 44.6875,30.2917 36,34.5C 35.5045,32.5273 35.3379,30.5273 35.5,28.5 Z M 28.5,43.5 C 30.4059,47.5542 29.4059,48.3875 25.5,46C 26.3734,44.955 27.3734,44.1217 28.5,43.5 Z M 35.5,43.5 C 38.1667,44.8333 38.1667,46.1667 35.5,47.5C 35.5,46.1667 35.5,44.8333 35.5,43.5 Z"/>
    </g>
    <g>
        <path fill="#0f9ebc" d="M 43.5,49.5 C 44.8333,50.1667 44.8333,50.1667 43.5,49.5 Z"/>
    </g>
</svg>
